<?xml version="1.0" encoding="utf-8"?>
<!-- Generator: Adobe Illustrator 26.0.1, SVG Export Plug-In . SVG Version: 6.00 Build 0)  -->
<svg version="1.1" id="Layer_1" xmlns="http://www.w3.org/2000/svg" xmlns:xlink="http://www.w3.org/1999/xlink" x="0px" y="0px"
	 viewBox="0 0 534.8 100" style="enable-background:new 0 0 534.8 100;" xml:space="preserve">
<style type="text/css">
	.st0{fill:#FFFFFF;}
</style>
<g>
	<path class="st0" d="M35,64.6c-1.3-0.8-2.6-1.4-4-1.9c-8.9-3.4-17.9-6.5-27-9.2c-0.7-0.2-1.3-0.3-1.7-0.4c-0.7-0.1-1.2,0-1.7,0.3
		c-0.7,0.5-0.7,1-0.2,1.7c0.3,0.4,0.7,0.7,1.2,1c1.4,0.7,2.8,1.1,4.1,1c5.9-0.3,11.3,1.2,16.3,4.3c0.3,0.2,0.4,0.3,0.5,0.5
		c0,0,0,0,0,0c0,0,0,0,0,0.1c0,0,0,0,0,0c0,0,0,0.1,0,0.1c0,0,0,0,0,0c0,0,0,0,0,0c0,0,0,0,0,0c-0.1,0.1-0.3,0.2-0.6,0.2
		c-2.2,0.3-4.4,0.4-6.6,0.1c-1.4-0.1-2.8-0.2-4.3-0.3c-0.8,0-1.4,0.2-1.9,0.7c-0.4,0.4-0.6,0.8-0.6,1.4c0,0.7,0.4,1.1,1.2,1.3
		c0.6,0.1,1.3,0.2,2.1,0.1c0.5,0,1.2-0.1,2.1-0.4c1.7-0.4,3.5-0.7,5.4-0.8c0.3,0,0.6,0.1,0.9,0.3c-5.4,5.5-9.1,9.2-11.2,11
		c-1.6,1.4-2.8,2.7-3.7,4.1c-2.2,3.2-2.8,6.7-1.8,10.5c0.7,2.8,2.2,5.1,4.4,6.9c2.1,1.7,4.6,2.7,7.4,2.8c2,0.1,3.9-0.2,5.6-0.9
		c1.7-0.7,3.2-1.7,4.6-3.2c2.2-2.4,3.6-5.3,4-8.7c1.7-5.1,3.7-10.1,5.9-15c0.3-0.7,0.5-1.1,0.5-1.2c0.1-0.5-0.1-1-0.8-1.3
		c-0.8-0.4-1.5-0.9-2-1.6c0,0-0.1-0.1-0.1-0.1c0-0.2,0.1-0.3,0.2-0.4l2.6-0.6c0.7-0.2,0.9-0.6,0.6-1.2C36,65.4,35.6,65,35,64.6z
		 M13.9,71.5C13.9,71.5,13.9,71.5,13.9,71.5C13.9,71.5,13.9,71.5,13.9,71.5z M14,71.5C14,71.5,14,71.5,14,71.5
		C14,71.5,14,71.5,14,71.5C14,71.5,14,71.5,14,71.5z M22.1,62.1C22.2,62.1,22.2,62.1,22.1,62.1C22.2,62.1,22.2,62.1,22.1,62.1z
		 M22.3,62C22.3,62,22.2,62.1,22.3,62C22.2,62.1,22.3,62,22.3,62z M22.2,61.4C22.2,61.4,22.3,61.4,22.2,61.4
		C22.3,61.4,22.2,61.4,22.2,61.4z M22.3,61.4C22.3,61.5,22.3,61.5,22.3,61.4C22.3,61.5,22.3,61.5,22.3,61.4
		C22.3,61.5,22.3,61.5,22.3,61.4z M22.3,61.5c0,0.1,0,0.1,0,0.2C22.4,61.7,22.4,61.6,22.3,61.5z M32.7,68.4
		C32.7,68.4,32.7,68.4,32.7,68.4C32.7,68.4,32.7,68.4,32.7,68.4C32.7,68.5,32.7,68.4,32.7,68.4z M36,65.9C36,66,36.1,66,36,65.9
		C36.1,66,36.1,66,36,65.9C36.1,66,36,66,36,65.9z M126.1,84.3c-0.3-1.9-1-3.5-2.2-4.9c-0.8-1.2-1.9-2.3-3.3-3.4
		c-7-5.6-13.4-12.1-19.4-19.4c-4.4-5.4-8.5-11.6-12.3-18.6c-2.8-5.5-5.3-11.2-7.6-17c-1.2-3.3-2.4-6.7-3.6-10
		c-0.9-2.5-1.7-4.3-2.4-5.3c-1.7-2.5-4-4.1-6.8-5C66.3,0,64.2-0.2,62,0.2c-2.3,0.4-4.3,1.4-6,2.9c-2.4,2.2-4,5-4.7,8.4
		c-2.3,6.5-4.9,12.9-7.9,19c-0.1,0.3-0.5,0.4-0.7,0.3c-1.5-0.7-2.4-1.8-2.9-3.4c-0.3-1.2-0.6-2.4-0.8-3.6c0.1-0.4,0-0.9-0.3-1.5
		c-2-0.3-2.7,0.6-2.2,2.8c0.1,0.4,0.3,0.8,0.5,1.2c1.5,2.5,2.8,5.1,4,7.9c0.3,0.7,0.1,0.8-0.5,0.4c-4.3-2.7-8-5.9-11.3-9.7
		c-0.7-0.8-1.3-1.6-1.7-2.3c-0.6-0.9-1-1.8-1.3-2.6c-0.4-1.1-1-1.9-1.9-2.5c-0.4-0.2-0.7-0.4-1.1-0.4c-0.6,0-0.9,0.2-1,0.8
		c-0.1,0.4,0,0.9,0.3,1.4c0.3,0.5,0.6,1,1,1.3c5.1,5.1,10.7,10.6,16.9,16.4c2.2,2.1,4.5,4,6.8,5.9c0.1,0.1,0.2,0.1,0.2-0.1
		c-0.1-1.6,0.5-2.4,1.6-2.2c0.5,0.1,1,0.3,1.6,0.7c0.5,0.4,1,0.7,1.4,1.1c0.4,0.3,0.7,0.3,1-0.1c3.1-3.6,6.3-7.1,9.6-10.4l1.2-1.1
		l2,1.9c5.1,5.2,9.8,10.7,14.1,16.5l5.4,7.8l5.9,10.5c-0.3,0.2-0.7,0.2-1-0.1l-13.3-4.9L73.7,61c-7.6-3.3-15.1-6.9-22.3-10.9
		c-6-3.3-11.8-6.9-17.4-10.8c-5.2-3.6-10.1-7.5-14.8-11.7c-1.4-1.2-2.5-2.1-3.3-2.4c-1.3-0.6-2.7-0.9-4.1-0.9
		c-2.3,0-4.4,0.6-6.1,1.7c-1.7,1.2-3,2.7-3.8,4.7c-1,2.3-1.1,4.8-0.3,7.4c0.7,2.2,2.1,4,4.1,5.4c0.8,0.5,1.7,0.9,2.8,1.2
		c0.8,0.2,1.8,0.5,3,0.8c5.2,1.3,11,3.2,17.3,5.6c12.8,4.9,25.1,10.9,37,17.8c6,3.5,11.9,7.2,17.7,11.1l13.1,9.6l3.6,3l1.9,1.6
		c1,0.9,2,1.8,3,2.6c2.8,2.4,6,3.4,9.7,3.1c2.5-0.2,4.6-1.1,6.5-2.5C125.4,94.1,127,89.7,126.1,84.3z M38.9,34.8
		C38.9,34.8,38.9,34.8,38.9,34.8C38.9,34.8,38.9,34.8,38.9,34.8C38.9,34.8,38.9,34.8,38.9,34.8z M46.8,41.9c0,0,0.1,0.1,0.1,0.1
		C46.9,41.9,46.8,41.9,46.8,41.9z M47,42C47,42,47,42,47,42C47,42,47,42,47,42z M47.1,41.9C47.1,41.9,47.1,41.9,47.1,41.9
		C47.1,41.9,47.1,41.9,47.1,41.9z M47.2,41.8C47.2,41.9,47.2,41.9,47.2,41.8C47.2,41.9,47.2,41.9,47.2,41.8
		C47.2,41.8,47.2,41.8,47.2,41.8z M53.1,42.1C53.1,42.1,53.1,42.1,53.1,42.1C53.1,42.1,53.1,42.1,53.1,42.1
		C53.1,42.1,53.1,42.1,53.1,42.1z M65,67.6C65,67.6,65,67.6,65,67.6C65,67.6,65,67.6,65,67.6z M65,67.7C65,67.7,65,67.7,65,67.7
		C65,67.7,65,67.7,65,67.7C65,67.7,65,67.7,65,67.7z M94.8,87.6C94.8,87.6,94.8,87.6,94.8,87.6C94.8,87.6,94.8,87.6,94.8,87.6
		C94.8,87.6,94.8,87.6,94.8,87.6z"/>
	<g>
		<g>
			<path class="st0" d="M135.5,27c4.1-2.8,16.7-7.8,16.1-13.6c-0.2-2.2-1.6-4-6.6-3.6c-6.4,0.5-10.7,5.7-13,2.4
				c-2.4-3.3,2.2-10.1,14.5-11.8c12.3-1.8,22.1,2.8,22.1,16.6c0,13.7,0.1,23.6,0.1,26.8c0,3.3,2.3,5.2,7,0.4l0.9,0.6
				c0,0-5.5,6.2-11.2,6.2s-5-5.8-5-10.9c-3.5,3.1-11.1,10.8-22,10.7c-5.6,0-10.6-2.2-11.6-7.7C125.4,35.5,130.3,30.6,135.5,27z
				 M135.9,41.6c2,5,9.4,5.9,14.2,3.7c3.3-1.4,7.9-4.3,10.1-6.5V17c0-11.6-5.4-15.3-10.9-15.2c-4.7,0.1-8.6,2.3-10.2,5
				c-0.6,1,0.6,1.3,1.8,1.2c5.8-0.6,11.2,0.5,11.8,5c0.4,3.4-1.3,7.4-8.3,12.8C137.3,31.2,134,36.4,135.9,41.6z"/>
			<path class="st0" d="M201.6,0c7.4,0,17.4,4.8,17.4,13.3c0,3.1-2.2,6.5-10.4,6.5l-3.6-0.1c-13.3,0-16.2,10-16.5,16.5
				c0,0,4.8,10.1,14.2,11c10.3,1.1,17.5-6,21.6-14.5l1,0.4c-3.9,9.5-12,18-24.1,18C188,51,177.7,37.3,177.7,25
				C177.7,11.9,187.9,0,201.6,0z M186,22.4c0,4.2,0.6,7.7,1.7,11.4c0.8-7.1,4.9-16,18.6-16c2.2,0,5.2,0,5.2-2.6
				c0-6.8-4.5-14.1-12-14.1C188.6,1.2,186,14.1,186,22.4z"/>
			<path class="st0" d="M226.6,49.5c2.2-0.3,5.8-0.4,5.8-2.8V16.2c0-4.7-0.5-12.2-1.8-15.2h9.1c0.8,1.5,1,5,1,8.6l-0.1,5.9v3.2
				c2.2-9.9,8.2-15.9,13-17.5c1.2-0.4,2.2-0.5,3.3-0.5h0.6c4.2,0.1,7.5,3,7.5,5.8c0,1.5-1,3.9-2.3,3.9c-1.2,0-2.5-3.1-9.2-3.1
				c-5.5,0-13,4.2-13,21.7v17.7c0,2.3,3.9,2.5,5.8,2.8v0.9h-19.8V49.5z"/>
			<path class="st0" d="M268.2,26.6c0-14.2,11.4-26.6,25.8-26.6c13.8,0,24.4,10.4,24.4,24.1c0,14.5-11.2,26.8-26,26.8
				C279.1,51,268.2,40.3,268.2,26.6z M294.6,49.7c12,0,15.2-13.9,15.3-23.2c0.3-10.7-4.8-25.3-17.8-25.3c-12,0-15.3,15.1-15.3,23.1
				C276.9,34.9,281.8,49.7,294.6,49.7z"/>
			<path class="st0" d="M322.4,1.1h14v24.9c1.9-9.7,11.5-25.5,20.6-25.5c12.7,0,12.3,11,12.3,24.1v22.3c0,2.2,3.9,2.6,5.8,2.8v0.9
				h-19.8v-0.9c2.2-0.2,5.8-0.5,5.8-2.8V24.4c0-11.5-0.9-19.3-6.8-19.3c-9.2,0-17.6,19.2-18,26.2v15.4c0,2.2,3.9,2.6,5.8,2.8v0.9
				h-19.8v-0.9c2.2-0.2,5.8-0.5,5.8-2.8V4.7c0-2.2-3.6-2.4-5.8-2.7V1.1z"/>
			<path class="st0" d="M378.8,26.6c0-14.2,11.4-26.6,25.8-26.6c13.8,0,24.4,10.4,24.4,24.1c0,14.5-11.2,26.8-26,26.8
				C389.7,51,378.8,40.3,378.8,26.6z M405.2,49.7c12,0,15.2-13.9,15.3-23.2c0.3-10.7-4.8-25.3-17.8-25.3c-12,0-15.3,15.1-15.3,23.1
				C387.4,34.9,392.4,49.7,405.2,49.7z"/>
			<path class="st0" d="M430.8,1.1H452V2c-1.4,0.2-6.5,0.2-5.5,3L459,40c0.8,2.2,1.3,3.3,3.1,3.3c1.8,0,2.6-0.9,3.4-3.4l11.8-34.6
				c1-2.7-4-3.2-5.5-3.4V1.1h13.7V2c-2.3,0.3-6,0.8-6.9,3.4l-11.8,34.6c-3,8.6-4.6,10.8-8.3,10.8c-3.7,0-5.7-1.9-8.8-10.7L437.1,4.9
				c-0.7-2.1-3.9-2.6-6.3-3V1.1z"/>
			<path class="st0" d="M493.8,27c4.1-2.8,16.7-7.8,16.1-13.6c-0.2-2.2-1.6-4-6.6-3.6c-6.4,0.5-10.7,5.7-13,2.4
				c-2.4-3.3,2.2-10.1,14.5-11.8c12.3-1.8,22.1,2.8,22.1,16.6c0,13.7,0.1,23.6,0.1,26.8c0,3.3,2.3,5.2,7,0.4l0.9,0.6
				c0,0-5.5,6.2-11.2,6.2c-5.7,0-5-5.8-5-10.9c-3.5,3.1-11.1,10.8-22,10.7c-5.6,0-10.6-2.2-11.6-7.7C483.8,35.5,488.6,30.6,493.8,27
				z M494.3,41.6c2,5,9.4,5.9,14.2,3.7c3.3-1.4,7.9-4.3,10.1-6.5V17c0-11.6-5.4-15.3-10.9-15.2c-4.7,0.1-8.6,2.3-10.2,5
				c-0.6,1,0.6,1.3,1.8,1.2c5.8-0.6,11.2,0.5,11.8,5c0.4,3.4-1.3,7.4-8.3,12.8C495.6,31.2,492.3,36.4,494.3,41.6z"/>
		</g>
		<g>
			<path class="st0" d="M181,74.1h0.1h0.3h1h3.2h3.2h1h0.3h0.1v1.1h-0.1h-0.3h-1h-3.2h-3.2h-0.3v0.4v3.3V81h0.4h3.1h3.1h1h0.3h0.1
				v1.1H190h-0.3h-1h-3.1h-3.1h-0.4v0V83V83v0.7V86v2.2h0.3h3.1h3.1h1h0.3h0.1v1.1H190h-0.3h-1h-3.1h-3.1h-1h-0.3H181v-1.1V86v-2.2
				v-0.1v-0.1v-0.3v-1.1v-3.3v-3.3v-0.4v-0.7v-0.3V74.1z"/>
			<path class="st0" d="M198.6,74.1v0.2v0.5v1.7v5.2v5.2v1.3h0.3h3.1h3.1h1h0.3h0.1v1.1h-0.1h-0.3h-1H202h-3.1h-0.3h-0.7h-0.3h-0.1
				v-0.2v-0.5v-1.7v-5.2v-5.2v-1.7v-0.5v-0.2H198.6z"/>
			<path class="st0" d="M213.8,74.1h0.1h0.3h1h3.2h3.2h1h0.3h0.1v1.1h-0.1h-0.3h-1h-3.2h-3.2h-0.3v0.4v3.3V81h0.4h3.1h3.1h1h0.3h0.1
				v1.1h-0.1h-0.3h-1h-3.1h-3.1h-0.4v0V83V83v0.7V86v2.2h0.3h3.1h3.1h1h0.3h0.1v1.1h-0.1h-0.3h-1h-3.1h-3.1h-1h-0.3h-0.1v-1.1V86
				v-2.2v-0.1v-0.1v-0.3v-1.1v-3.3v-3.3v-0.4v-0.7v-0.3V74.1z"/>
			<path class="st0" d="M243.2,74.1c-2.8,7-4.4,11.2-5,12.8c-0.3,0.7-0.5,1.2-0.7,1.7l-0.2,0.5l-0.4,0.9l-0.3-0.8l-0.1-0.1
				c0-0.1-0.1-0.3-0.2-0.5c-0.2-0.5-0.4-1-0.7-1.7c-1.7-4.1-3.5-8.4-5.3-12.8h1.2c0.3,0.9,0.9,2.1,1.5,3.8c0.7,1.7,1.4,3.4,2.1,5.2
				c0.7,1.8,1.2,3,1.4,3.4l0.2,0.6l0.2-0.6l4.9-12.4H243.2z"/>
			<path class="st0" d="M259.9,85c-0.2-0.6-0.8-1.9-1.5-3.8c-0.8-2-1.4-3.4-1.7-4.3c-0.1-0.2-0.2-0.4-0.2-0.6l-0.2,0.5l-3.3,8.3
				c0,0-0.1,0.3-0.3,0.8c-0.2,0.5-0.4,1-0.6,1.4l-0.7,1.7l-0.1,0.2h-1.2l0.1-0.2c0.1-0.1,0.1-0.3,0.2-0.5c0.2-0.5,0.4-1.1,0.7-1.7
				l0.9-2.2c0.2-0.5,0.7-1.8,1.6-3.9c0.9-2.2,1.4-3.6,1.7-4.3c0.3-0.7,0.5-1.2,0.7-1.7c0-0.1,0.1-0.2,0.2-0.4l0.4-1l0.3,0.8
				c0,0,0,0.1,0,0.1c0.1,0.1,0.1,0.3,0.2,0.5c0.2,0.5,0.4,1.1,0.7,1.7c0.2,0.5,0.6,1.4,1,2.5c0.5,1.2,1,2.3,1.4,3.3
				c0.4,1,0.8,1.9,1.1,2.7c0,0,0.3,0.7,0.8,1.9c0.3,0.7,0.5,1.2,0.7,1.7l0.2,0.5l0.1,0.2h-1.2c-0.3-0.6-0.5-1.3-0.8-1.9
				c-0.2-0.5-0.4-1.1-0.7-1.5C260.1,85.3,260,85,259.9,85L259.9,85z"/>
			<path class="st0" d="M265.3,74h0.1h0.3h1.2h3.6h3.6h1.2h0.3h0.1v1.1h-0.1h-0.3h-1.2h-3.1v1.3v5.2v5.2v1.7v0.5v0.2h-1.1v-0.2v-0.5
				v-1.7v-5.2v-5.2v-1.3H267h-1.2h-0.3h-0.1V74z"/>
			<path class="st0" d="M283.2,74.1h0.1h0.3h1h3.2h3.2h1h0.3h0.1v1.1h-0.1H292h-1h-3.2h-3.2h-0.3v0.4v3.3V81h0.4h3.1h3.1h1h0.3h0.1
				v1.1h-0.1H292h-1h-3.1h-3.1h-0.4v0V83V83v0.7V86v2.2h0.3h3.1h3.1h1h0.3h0.1v1.1h-0.1h-0.3h-1h-3.1h-3.1h-1h-0.3h-0.1v-1.1V86
				v-2.2v-0.1v-0.1v-0.3v-1.1v-3.3v-3.3v-0.4v-0.7v-0.3V74.1z"/>
			<path class="st0" d="M310.4,74.1h1.3c0.3,0.4,0.5,0.7,0.6,0.9c0.3,0.4,0.6,1,1,1.6l2.6,4l2.6-4c0.4-0.6,0.7-1.2,1-1.6l0.6-0.9
				h1.3c-0.4,0.6-0.6,1-0.7,1l-0.3,0.5c-0.3,0.4-0.6,1-1,1.6l-2.9,4.6v0.7v2.8c0,1,0,1.9,0,2.8v0.9v0.3v0.1l-1.1,0v-0.1v-0.3V88
				c0-0.8,0-1.8,0-2.8v-2.8v-0.7l-2.9-4.6c-0.4-0.6-0.7-1.2-1-1.6l-0.3-0.5L310.4,74.1z"/>
			<path class="st0" d="M336.9,73.8c2.1,0,4,0.8,5.5,2.3c1.5,1.5,2.3,3.4,2.4,5.6c0.1,1.9-0.6,3.6-1.9,5.2c-1.5,1.9-3.5,2.8-5.9,2.8
				c-2.3,0-4.2-0.7-5.7-2.2c-1.5-1.5-2.3-3.4-2.4-5.7c-0.1-2.2,0.7-4.1,2.3-5.6c1.5-1.5,3.4-2.3,5.6-2.4
				C336.8,73.7,336.8,73.8,336.9,73.8z M336.7,74.8c-1.9,0.1-3.5,0.8-4.8,2.1c-1.4,1.3-2,2.9-2,4.8c0.1,2,0.8,3.7,2.1,5
				c1.3,1.3,3,1.9,5,1.9c2.1,0,3.7-0.8,5-2.4c1.2-1.4,1.7-2.9,1.6-4.5c-0.1-1.9-0.8-3.5-2.1-4.8C340.3,75.6,338.7,74.9,336.7,74.8
				C336.8,74.9,336.7,74.9,336.7,74.8z"/>
			<path class="st0" d="M353.1,83.3c0.1,1.6,0.5,2.9,1.2,3.8c0.8,1.1,1.9,1.6,3.3,1.6c1.3,0,2.3-0.5,3.1-1.6c0.7-1,1.1-2.2,1.1-3.6
				v0v-0.3v-1.1v-3.3v-3.3v-1.1v-0.3v-0.1h1.1v0.1v0.3v1.1v3.3v3.3v1.1v0.1v0.1v0.2v0.1c-0.1,1.6-0.5,3-1.3,4.2
				c-1,1.4-2.3,2.1-3.9,2.1c-1.7,0-3.1-0.7-4.1-2c-0.9-1.2-1.4-2.6-1.4-4.4v-0.1v-0.1v-0.3v-1v-3.2v-3.2v-1v-0.3v-0.1h1.1v0.1v0.3v1
				v3.2v3.2v1v0.3V83.3L353.1,83.3z"/>
			<path class="st0" d="M378.3,89.2c-0.3-0.6-0.5-1.3-0.8-1.9c-1-2.2-1.9-4.2-2.7-5.9c-0.5,0.1-1.1,0.1-1.7,0.1v-1.1
				c2.1,0,3.6-0.3,4.4-1c0.6-0.4,0.9-1,0.9-1.8c0-0.3-0.1-0.6-0.2-1c-0.2-0.4-0.5-0.8-0.9-1c-0.4-0.2-1.1-0.4-2.1-0.5
				c-0.7,0-2-0.1-3.9,0v1.3v5.2c0,1.9,0,3.6,0,5.2v1.7v0.5v0.2h-1.1v-0.2v-0.5v-1.7l0-5.2v-5.2v-1.7v-0.5v-0.2h1c1.9,0,3.3,0,4,0
				c1.1,0.1,2,0.3,2.6,0.6c0.6,0.4,1.1,0.9,1.4,1.5c0.2,0.5,0.4,1,0.4,1.5c0,1.1-0.4,2-1.3,2.6c-0.5,0.4-1.2,0.7-2.2,0.9l1.5,3.5
				l0.9,2.2l0.8,1.7c0.1,0.2,0.1,0.3,0.2,0.5l0.1,0.2H378.3z"/>
			<path class="st0" d="M398.6,75.1v1.3v5.2c0,1.9,0,3.6,0,5.2v1.7v0.5v0.2h-1.1v-0.2v-0.5v-1.7c0-1.6,0-3.3,0-5.2v-5.2v-1.7v-0.5
				v-0.2h1.1c3.4-0.1,5.6,0.2,6.6,0.8c0.6,0.3,1.1,0.8,1.3,1.4c0.2,0.4,0.3,0.9,0.3,1.4c0,1.1-0.5,2-1.3,2.6
				c-0.4,0.3-0.9,0.5-1.5,0.7c0.6,0.2,1.1,0.5,1.5,0.9c0.5,0.4,0.8,0.9,1,1.5c0.1,0.4,0.2,0.9,0.3,1.5c0,1.2-0.4,2.1-1.3,2.9
				c-1.1,1-2.9,1.5-5.3,1.5v-1.1c2.2,0,3.7-0.4,4.6-1.2c0.6-0.5,0.9-1.2,0.9-2.1c0-1-0.3-1.7-0.9-2.2c-0.9-0.7-2.3-1.2-4.3-1.2h-0.2
				H400v-1.1h0.5c2,0,3.5-0.4,4.3-1c0.5-0.4,0.8-1,0.9-1.8c0-0.3-0.1-0.7-0.2-0.9c-0.2-0.4-0.5-0.7-0.9-0.9
				C403.8,75.3,401.7,75.1,398.6,75.1z"/>
			<path class="st0" d="M422.2,89.2c-0.3-0.6-0.5-1.3-0.8-1.9c-1-2.2-1.9-4.2-2.7-5.9c-0.5,0.1-1.1,0.1-1.7,0.1v-1.1
				c2.1,0,3.6-0.3,4.4-1c0.6-0.4,0.9-1,0.9-1.8c0-0.3-0.1-0.6-0.2-1c-0.2-0.4-0.5-0.8-0.9-1c-0.4-0.2-1.1-0.4-2.1-0.5
				c-0.7,0-2-0.1-3.9,0v1.3v5.2c0,1.9,0,3.6,0,5.2v1.7v0.5v0.2h-1.1v-0.2v-0.5v-1.7l0-5.2v-5.2v-1.7v-0.5v-0.2h1c1.9,0,3.3,0,4,0
				c1.1,0.1,2,0.3,2.6,0.6c0.6,0.4,1.1,0.9,1.4,1.5c0.2,0.5,0.4,1,0.4,1.5c0,1.1-0.4,2-1.3,2.6c-0.5,0.4-1.2,0.7-2.2,0.9l1.5,3.5
				l0.9,2.2l0.8,1.7c0.1,0.2,0.1,0.3,0.2,0.5l0.1,0.2H422.2z"/>
			<path class="st0" d="M440.2,85c-0.2-0.6-0.8-1.9-1.5-3.8c-0.8-2-1.4-3.4-1.7-4.3c-0.1-0.2-0.2-0.4-0.2-0.6l-0.2,0.5l-3.3,8.3
				c0,0-0.1,0.3-0.3,0.8c-0.2,0.5-0.4,1-0.6,1.4l-0.7,1.7l-0.1,0.2h-1.2l0.1-0.2c0.1-0.1,0.1-0.3,0.2-0.5c0.2-0.5,0.4-1.1,0.7-1.7
				l0.9-2.2c0.2-0.5,0.7-1.8,1.6-3.9c0.9-2.2,1.4-3.6,1.7-4.3c0.3-0.7,0.5-1.2,0.7-1.7c0-0.1,0.1-0.2,0.2-0.4l0.4-1l0.3,0.8
				c0,0,0,0.1,0,0.1c0.1,0.1,0.1,0.3,0.2,0.5c0.2,0.5,0.4,1.1,0.7,1.7c0.2,0.5,0.6,1.4,1,2.5c0.5,1.2,1,2.3,1.4,3.3
				c0.4,1,0.8,1.9,1.1,2.7c0,0,0.3,0.7,0.8,1.9c0.3,0.7,0.5,1.2,0.7,1.7l0.2,0.5l0.1,0.2H442c-0.3-0.6-0.5-1.3-0.8-1.9
				c-0.2-0.5-0.4-1.1-0.7-1.5S440.2,85,440.2,85L440.2,85z"/>
			<path class="st0" d="M461.7,74.1L461.7,74.1v0.4v1.2v3.6c0,0.7,0,1.3,0,1.9c0,0.6,0,1.2,0,1.7v1.2v0.3v2.2v0.6l-1.6-1.9
				c-0.1-0.1-0.2-0.2-0.3-0.3l-1.1-1.2c-1-1.1-2.1-2.3-3.3-3.7c-1.2-1.4-2.3-2.6-3.3-3.7c-0.4-0.5-0.8-0.9-1.1-1.2
				c-0.1-0.1-0.2-0.2-0.3-0.3l-0.2-0.2v-1.6l1,1c0.1,0.1,0.2,0.2,0.3,0.3c0.3,0.3,0.7,0.7,1.1,1.2c1,1.1,2.1,2.3,3.3,3.7
				c1.2,1.3,2.3,2.6,3.3,3.7c0.4,0.5,0.8,0.9,1.1,1.2l0,0v-0.2v-1.2c0-0.5,0-1.1,0-1.7c0-0.6,0-1.2,0-1.9v-3.6v-1.2v-0.3v-0.1H461.7
				z M450.4,76.8l1,1c0.1,0.1,0.2,0.2,0.3,0.4c0.3,0.3,0.7,0.7,1.1,1.2c1,1.1,2.1,2.3,3.3,3.7c1.2,1.3,2.3,2.6,3.3,3.7
				c0.4,0.5,0.8,0.9,1.1,1.2c0.1,0.1,0.2,0.3,0.3,0.3l0.9,0.9h-1.5l-0.2-0.2c-0.1-0.1-0.2-0.2-0.3-0.3c-0.3-0.3-0.7-0.7-1.1-1.2
				c-1-1.1-2.1-2.3-3.3-3.7c-1.2-1.3-2.3-2.6-3.3-3.7l-0.5-0.5v0.4v3.7v3.7v1.2v0.3v0.1h-1.1v-0.1v-0.3v-1.2v-3.7v-3.7v-1.2v-0.4
				v-0.1V76.8z"/>
			<path class="st0" d="M471.7,74.1c2.7,0,4.8,0.8,6.4,2.3c1.4,1.4,2.2,3.2,2.2,5.3c0,2.2-0.6,4-1.9,5.3c-0.8,0.8-1.9,1.4-3.3,1.8
				c-1,0.3-1.9,0.4-2.8,0.5h-1.1v-0.2v-0.5v-1.7c0-1.6,0-3.3,0-5.2v-5.2c0-0.7,0-1.2,0-1.7v-0.5v-0.2H471.7L471.7,74.1z M472.2,88.1
				c0.9,0,1.8-0.2,2.5-0.4c1.3-0.3,2.2-0.9,2.9-1.5c1.1-1.1,1.6-2.6,1.6-4.5c0-1.8-0.7-3.3-1.9-4.5c-1.3-1.3-3-2-5.2-2
				c0,0.1,0,0.2,0,0.5c0,0.2,0,0.5,0,0.8v5.2c0,1.9,0,3.6,0,5.2V88.1z"/>
		</g>
	</g>
</g>
</svg>
