<?xml version="1.0" encoding="utf-8"?>
<!-- Generator: Adobe Illustrator 26.0.1, SVG Export Plug-In . SVG Version: 6.00 Build 0)  -->
<svg version="1.1" id="Layer_1" xmlns="http://www.w3.org/2000/svg" xmlns:xlink="http://www.w3.org/1999/xlink" x="0px" y="0px"
	 viewBox="0 0 489.7 100" style="enable-background:new 0 0 489.7 100;" xml:space="preserve">
<style type="text/css">
	.st0{fill:#FFFFFF;}
</style>
<g>
	<path class="st0" d="M35,64.6c-1.3-0.8-2.6-1.4-4-1.9c-8.9-3.4-17.9-6.5-27-9.2c-0.7-0.2-1.3-0.3-1.7-0.4c-0.7-0.1-1.2,0-1.7,0.3
		c-0.7,0.5-0.7,1-0.2,1.7c0.3,0.4,0.7,0.7,1.2,1c1.4,0.7,2.8,1.1,4.1,1c5.9-0.3,11.3,1.2,16.3,4.3c0.3,0.2,0.4,0.3,0.5,0.5
		c0,0,0,0,0,0c0,0,0,0,0,0.1c0,0,0,0,0,0c0,0,0,0.1,0,0.1c0,0,0,0,0,0c0,0,0,0,0,0c0,0,0,0,0,0c-0.1,0.1-0.3,0.2-0.6,0.2
		c-2.2,0.3-4.4,0.4-6.6,0.1c-1.4-0.1-2.8-0.2-4.3-0.3c-0.8,0-1.4,0.2-1.9,0.7c-0.4,0.4-0.6,0.8-0.6,1.4c0,0.7,0.4,1.1,1.2,1.3
		c0.6,0.1,1.3,0.2,2.1,0.1c0.5,0,1.2-0.1,2.1-0.4c1.7-0.4,3.5-0.7,5.4-0.8c0.3,0,0.6,0.1,0.9,0.3c-5.4,5.5-9.1,9.2-11.2,11
		c-1.6,1.4-2.8,2.7-3.7,4.1c-2.2,3.2-2.8,6.7-1.8,10.5c0.7,2.8,2.2,5.1,4.4,6.9c2.1,1.7,4.6,2.7,7.4,2.8c2,0.1,3.9-0.2,5.6-0.9
		c1.7-0.7,3.2-1.7,4.6-3.2c2.2-2.4,3.6-5.3,4-8.7c1.7-5.1,3.7-10.1,5.9-15c0.3-0.7,0.5-1.1,0.5-1.2c0.1-0.5-0.1-1-0.8-1.3
		c-0.8-0.4-1.5-0.9-2-1.6c0,0-0.1-0.1-0.1-0.1c0-0.2,0.1-0.3,0.2-0.4l2.6-0.6c0.7-0.2,0.9-0.6,0.6-1.2C36,65.4,35.6,65,35,64.6z
		 M13.9,71.5C13.9,71.5,13.9,71.5,13.9,71.5C13.9,71.5,13.9,71.5,13.9,71.5z M14,71.5C14,71.5,14,71.5,14,71.5
		C14,71.5,14,71.5,14,71.5C14,71.5,14,71.5,14,71.5z M22.1,62.1C22.2,62.1,22.2,62.1,22.1,62.1C22.2,62.1,22.2,62.1,22.1,62.1z
		 M22.3,62C22.3,62,22.2,62.1,22.3,62C22.2,62.1,22.3,62,22.3,62z M22.2,61.4C22.2,61.4,22.3,61.4,22.2,61.4
		C22.3,61.4,22.2,61.4,22.2,61.4z M22.3,61.4C22.3,61.5,22.3,61.5,22.3,61.4C22.3,61.5,22.3,61.5,22.3,61.4
		C22.3,61.5,22.3,61.5,22.3,61.4z M22.3,61.5c0,0.1,0,0.1,0,0.2C22.4,61.7,22.4,61.6,22.3,61.5z M32.7,68.4
		C32.7,68.4,32.7,68.4,32.7,68.4C32.7,68.4,32.7,68.4,32.7,68.4C32.7,68.5,32.7,68.4,32.7,68.4z M36,65.9C36,66,36.1,66,36,65.9
		C36.1,66,36.1,66,36,65.9C36.1,66,36,66,36,65.9z M126.1,84.3c-0.3-1.9-1-3.5-2.2-4.9c-0.8-1.2-1.9-2.3-3.3-3.4
		c-7-5.6-13.4-12.1-19.4-19.4c-4.4-5.4-8.5-11.6-12.3-18.6c-2.8-5.5-5.3-11.2-7.6-17c-1.2-3.3-2.4-6.7-3.6-10
		c-0.9-2.5-1.7-4.3-2.4-5.3c-1.7-2.5-4-4.1-6.8-5C66.3,0,64.2-0.2,62,0.2c-2.3,0.4-4.3,1.4-6,2.9c-2.4,2.2-4,5-4.7,8.4
		c-2.3,6.5-4.9,12.9-7.9,19c-0.1,0.3-0.5,0.4-0.7,0.3c-1.5-0.7-2.4-1.8-2.9-3.4c-0.3-1.2-0.6-2.4-0.8-3.6c0.1-0.4,0-0.9-0.3-1.5
		c-2-0.3-2.7,0.6-2.2,2.8c0.1,0.4,0.3,0.8,0.5,1.2c1.5,2.5,2.8,5.1,4,7.9c0.3,0.7,0.1,0.8-0.5,0.4c-4.3-2.7-8-5.9-11.3-9.7
		c-0.7-0.8-1.3-1.6-1.7-2.3c-0.6-0.9-1-1.8-1.3-2.6c-0.4-1.1-1-1.9-1.9-2.5c-0.4-0.2-0.7-0.4-1.1-0.4c-0.6,0-0.9,0.2-1,0.8
		c-0.1,0.4,0,0.9,0.3,1.4c0.3,0.5,0.6,1,1,1.3c5.1,5.1,10.7,10.6,16.9,16.4c2.2,2.1,4.5,4,6.8,5.9c0.1,0.1,0.2,0.1,0.2-0.1
		c-0.1-1.6,0.5-2.4,1.6-2.2c0.5,0.1,1,0.3,1.6,0.7c0.5,0.4,1,0.7,1.4,1.1c0.4,0.3,0.7,0.3,1-0.1c3.1-3.6,6.3-7.1,9.6-10.4l1.2-1.1
		l2,1.9c5.1,5.2,9.8,10.7,14.1,16.5l5.4,7.8l5.9,10.5c-0.3,0.2-0.7,0.2-1-0.1l-13.3-4.9L73.7,61c-7.6-3.3-15.1-6.9-22.3-10.9
		c-6-3.3-11.8-6.9-17.4-10.8c-5.2-3.6-10.1-7.5-14.8-11.7c-1.4-1.2-2.5-2.1-3.3-2.4c-1.3-0.6-2.7-0.9-4.1-0.9
		c-2.3,0-4.4,0.6-6.1,1.7c-1.7,1.2-3,2.7-3.8,4.7c-1,2.3-1.1,4.8-0.3,7.4c0.7,2.2,2.1,4,4.1,5.4c0.8,0.5,1.7,0.9,2.8,1.2
		c0.8,0.2,1.8,0.5,3,0.8c5.2,1.3,11,3.2,17.3,5.6c12.8,4.9,25.1,10.9,37,17.8c6,3.5,11.9,7.2,17.7,11.1l13.1,9.6l3.6,3l1.9,1.6
		c1,0.9,2,1.8,3,2.6c2.8,2.4,6,3.4,9.7,3.1c2.5-0.2,4.6-1.1,6.5-2.5C125.4,94.1,127,89.7,126.1,84.3z M38.9,34.8
		C38.9,34.8,38.9,34.8,38.9,34.8C38.9,34.8,38.9,34.8,38.9,34.8C38.9,34.8,38.9,34.8,38.9,34.8z M46.8,41.9c0,0,0.1,0.1,0.1,0.1
		C46.9,41.9,46.8,41.9,46.8,41.9z M47,42C47,42,47,42,47,42C47,42,47,42,47,42z M47.1,41.9C47.1,41.9,47.1,41.9,47.1,41.9
		C47.1,41.9,47.1,41.9,47.1,41.9z M47.2,41.8C47.2,41.9,47.2,41.9,47.2,41.8C47.2,41.9,47.2,41.9,47.2,41.8
		C47.2,41.8,47.2,41.8,47.2,41.8z M53.1,42.1C53.1,42.1,53.1,42.1,53.1,42.1C53.1,42.1,53.1,42.1,53.1,42.1
		C53.1,42.1,53.1,42.1,53.1,42.1z M65,67.6C65,67.6,65,67.6,65,67.6C65,67.6,65,67.6,65,67.6z M65,67.7C65,67.7,65,67.7,65,67.7
		C65,67.7,65,67.7,65,67.7C65,67.7,65,67.7,65,67.7z M94.8,87.6C94.8,87.6,94.8,87.6,94.8,87.6C94.8,87.6,94.8,87.6,94.8,87.6
		C94.8,87.6,94.8,87.6,94.8,87.6z"/>
	<g>
		<g>
			<path class="st0" d="M179.3,75h0.1h0.2h0.9h2.7h2.7h0.9h0.3h0.1V76h-0.1h-0.3h-0.9h-2.7h-2.7h-0.3v0.4v2.8v1.8h0.3h2.6h2.6h0.9
				h0.2h0.1v0.9h-0.1h-0.2h-0.9h-2.6h-2.6h-0.3v0v0.7v0.1v0.6v1.9v1.8h0.3h2.6h2.6h0.9h0.3h0.1v0.9h-0.1h-0.3h-0.9h-2.6h-2.6h-0.9
				h-0.2h-0.1v-0.9v-1.8v-1.9v-0.1V83v-0.3v-0.9v-2.8v-2.8V76v-0.6v-0.3V75z"/>
			<path class="st0" d="M194,75v0.2v0.4V77v4.4v4.4v1.1h0.3h2.6h2.6h0.9h0.2h0.1v0.9h-0.1h-0.2h-0.9h-2.6h-2.6H194h-0.6h-0.2h-0.1
				v-0.2v-0.4v-1.5v-4.4V77v-1.5v-0.4V75H194z"/>
			<path class="st0" d="M206.8,75h0.1h0.2h0.9h2.7h2.7h0.9h0.3h0.1V76h-0.1h-0.3h-0.9h-2.7H208h-0.3v0.4v2.8v1.8h0.3h2.6h2.6h0.9
				h0.2h0.1v0.9h-0.1h-0.2h-0.9h-2.6h-2.6h-0.3v0v0.7v0.1v0.6v1.9v1.8h0.3h2.6h2.6h0.9h0.3h0.1v0.9h-0.1h-0.3h-0.9h-2.6H208h-0.9
				h-0.2h-0.1v-0.9v-1.8v-1.9v-0.1V83v-0.3v-0.9v-2.8v-2.8V76v-0.6v-0.3V75z"/>
			<path class="st0" d="M231.6,75c-2.3,5.9-3.7,9.5-4.2,10.8c-0.2,0.6-0.4,1-0.6,1.5l-0.1,0.4l-0.3,0.8l-0.3-0.7l-0.1-0.1
				c0-0.1-0.1-0.2-0.2-0.4c-0.2-0.4-0.4-0.9-0.6-1.5c-1.4-3.4-2.9-7-4.4-10.8h1c0.3,0.7,0.7,1.8,1.3,3.2c0.6,1.4,1.2,2.9,1.8,4.4
				c0.6,1.5,1,2.5,1.2,2.9l0.2,0.5l0.2-0.5l4.1-10.5H231.6z"/>
			<path class="st0" d="M245.7,84.2c-0.2-0.5-0.6-1.6-1.3-3.2c-0.7-1.6-1.2-2.9-1.5-3.6c-0.1-0.2-0.2-0.4-0.2-0.5l-0.2,0.5l-2.7,7
				c0,0-0.1,0.3-0.3,0.7c-0.2,0.4-0.3,0.8-0.5,1.2l-0.6,1.5l-0.1,0.2h-1l0.1-0.1c0.1-0.1,0.1-0.3,0.2-0.4c0.2-0.4,0.4-0.9,0.6-1.5
				l0.7-1.9c0.2-0.4,0.6-1.5,1.3-3.3c0.7-1.8,1.2-3,1.4-3.6c0.2-0.6,0.4-1,0.6-1.5c0-0.1,0.1-0.2,0.2-0.4l0.3-0.8l0.3,0.7
				c0,0,0,0.1,0,0.1c0.1,0.1,0.1,0.3,0.2,0.4c0.2,0.4,0.4,0.9,0.6,1.5c0.2,0.4,0.5,1.1,0.9,2.1c0.4,1,0.8,1.9,1.2,2.8
				c0.3,0.9,0.7,1.6,0.9,2.2c0,0,0.2,0.6,0.7,1.6c0.2,0.6,0.4,1,0.6,1.5l0.2,0.4l0.1,0.1h-1c-0.2-0.5-0.4-1.1-0.7-1.6
				c-0.2-0.5-0.4-0.9-0.5-1.3C245.8,84.5,245.7,84.3,245.7,84.2L245.7,84.2z"/>
			<path class="st0" d="M250.2,75h0.1h0.3h1h3.1h3.1h1h0.3h0.1v0.9H259h-0.3h-1h-2.6V77v4.4v4.4v1.4v0.4v0.2h-0.9v-0.2v-0.4v-1.5
				v-4.4V77v-1.1h-2.6h-1h-0.3h-0.1V75z"/>
			<path class="st0" d="M265.2,75h0.1h0.2h0.9h2.7h2.7h0.9h0.3h0.1V76h-0.1h-0.3h-0.9h-2.7h-2.7h-0.3v0.4v2.8v1.8h0.3h2.6h2.6h0.9
				h0.2h0.1v0.9h-0.1h-0.2h-0.9h-2.6h-2.6h-0.3v0v0.7v0.1v0.6v1.9v1.8h0.3h2.6h2.6h0.9h0.3h0.1v0.9h-0.1h-0.3h-0.9h-2.6h-2.6h-0.9
				h-0.2h-0.1v-0.9v-1.8v-1.9v-0.1V83v-0.3v-0.9v-2.8v-2.8V76v-0.6v-0.3V75z"/>
			<path class="st0" d="M288.1,75h1.1c0.2,0.4,0.4,0.6,0.5,0.8c0.2,0.4,0.5,0.8,0.9,1.4l2.1,3.4l2.2-3.4c0.3-0.5,0.6-1,0.9-1.4
				l0.5-0.8h1.1c-0.3,0.5-0.5,0.8-0.6,0.9l-0.2,0.4c-0.2,0.4-0.5,0.8-0.9,1.4l-2.5,3.9v0.6v2.3c0,0.9,0,1.6,0,2.3v0.8v0.2v0.1
				l-0.9,0v-0.1v-0.2v-0.8c0-0.7,0-1.5,0-2.3v-2.3v-0.6l-2.5-3.9c-0.3-0.5-0.6-1-0.9-1.4l-0.3-0.4L288.1,75z"/>
			<path class="st0" d="M310.4,74.8c1.8,0,3.3,0.7,4.6,2c1.3,1.3,2,2.8,2,4.7c0.1,1.6-0.5,3-1.6,4.4c-1.3,1.6-2.9,2.4-4.9,2.4
				c-1.9,0-3.5-0.6-4.8-1.9c-1.3-1.3-2-2.9-2-4.8c-0.1-1.8,0.6-3.4,1.9-4.7c1.3-1.3,2.8-1.9,4.7-2C310.3,74.8,310.4,74.8,310.4,74.8
				z M310.3,75.7c-1.6,0.1-2.9,0.7-4,1.8c-1.2,1.1-1.7,2.5-1.7,4c0.1,1.7,0.7,3.1,1.8,4.2c1.1,1.1,2.5,1.6,4.2,1.6
				c1.7,0,3.1-0.7,4.2-2c1-1.2,1.4-2.4,1.4-3.8c-0.1-1.6-0.6-3-1.8-4.1C313.2,76.3,311.9,75.7,310.3,75.7
				C310.3,75.7,310.3,75.7,310.3,75.7z"/>
			<path class="st0" d="M324.1,82.8c0.1,1.3,0.4,2.4,1,3.2c0.7,0.9,1.6,1.3,2.7,1.3c1.1,0,1.9-0.5,2.6-1.4c0.6-0.8,0.9-1.8,0.9-3v0
				v-0.3v-0.9V79v-2.7v-0.9v-0.3V75h0.9v0.1v0.3v0.9V79v2.8v0.9v0.1v0.1V83V83c-0.1,1.4-0.4,2.5-1.1,3.5c-0.8,1.2-1.9,1.8-3.3,1.8
				c-1.4,0-2.6-0.6-3.5-1.7c-0.8-1-1.2-2.2-1.2-3.7v-0.1v-0.1v-0.3v-0.9v-2.7v-2.7v-0.9v-0.3V75h0.9v0.1v0.3v0.9v2.7v2.7v0.9v0.3
				V82.8L324.1,82.8z"/>
			<path class="st0" d="M345.2,87.8c-0.2-0.5-0.5-1.1-0.7-1.6c-0.8-1.9-1.6-3.5-2.2-5c-0.4,0.1-0.9,0.1-1.4,0.1v-0.9
				c1.8,0,3-0.3,3.7-0.8c0.5-0.4,0.7-0.9,0.7-1.5c0-0.2-0.1-0.5-0.2-0.8c-0.2-0.4-0.4-0.6-0.8-0.8c-0.4-0.2-1-0.3-1.8-0.4
				c-0.6,0-1.7,0-3.2,0V77v4.4c0,1.6,0,3.1,0,4.4v1.4v0.4v0.2h-0.9v-0.2v-0.4v-1.4l0-4.4V77v-1.5v-0.4V75h0.8c1.6,0,2.8,0,3.4,0
				c1,0.1,1.7,0.2,2.1,0.5c0.5,0.3,0.9,0.7,1.2,1.2c0.2,0.4,0.3,0.9,0.3,1.3c0,0.9-0.4,1.7-1.1,2.2c-0.4,0.3-1,0.6-1.8,0.8l1.3,2.9
				l0.8,1.8l0.6,1.5c0.1,0.2,0.1,0.3,0.2,0.4l0.1,0.1H345.2z"/>
			<path class="st0" d="M362.3,76V77v4.4c0,1.6,0,3.1,0,4.4v1.4v0.4v0.2h-0.9v-0.2v-0.4v-1.4c0-1.3,0-2.8,0-4.4V77v-1.5v-0.4V75h0.9
				c2.8-0.1,4.7,0.2,5.6,0.7c0.5,0.3,0.9,0.7,1.1,1.2c0.2,0.4,0.3,0.8,0.3,1.2c0,0.9-0.4,1.7-1.1,2.2c-0.3,0.3-0.7,0.5-1.2,0.6
				c0.5,0.2,0.9,0.5,1.3,0.7c0.4,0.4,0.7,0.8,0.8,1.3c0.1,0.3,0.2,0.7,0.2,1.3c0,1-0.4,1.8-1.1,2.4c-0.9,0.8-2.4,1.3-4.5,1.3v-0.9
				c1.8,0,3.1-0.3,3.9-1c0.5-0.5,0.8-1,0.8-1.7c0-0.8-0.3-1.4-0.8-1.8c-0.7-0.6-1.9-1-3.6-1h-0.1h-0.3v-0.9h0.4
				c1.7,0,2.9-0.3,3.6-0.8c0.5-0.4,0.7-0.9,0.7-1.5c0-0.3-0.1-0.6-0.2-0.8c-0.2-0.3-0.4-0.6-0.7-0.8C366.7,76.1,365,75.9,362.3,76z"
				/>
			<path class="st0" d="M382.2,87.8c-0.2-0.5-0.5-1.1-0.7-1.6c-0.8-1.9-1.6-3.5-2.2-5c-0.4,0.1-0.9,0.1-1.4,0.1v-0.9
				c1.8,0,3-0.3,3.7-0.8c0.5-0.4,0.7-0.9,0.7-1.5c0-0.2-0.1-0.5-0.2-0.8c-0.2-0.4-0.4-0.6-0.8-0.8c-0.4-0.2-1-0.3-1.8-0.4
				c-0.6,0-1.7,0-3.2,0V77v4.4c0,1.6,0,3.1,0,4.4v1.4v0.4v0.2h-0.9v-0.2v-0.4v-1.4l0-4.4V77v-1.5v-0.4V75h0.8c1.6,0,2.8,0,3.4,0
				c1,0.1,1.7,0.2,2.1,0.5c0.5,0.3,0.9,0.7,1.2,1.2c0.2,0.4,0.3,0.9,0.3,1.3c0,0.9-0.4,1.7-1.1,2.2c-0.4,0.3-1,0.6-1.8,0.8l1.3,2.9
				l0.8,1.8l0.6,1.5c0.1,0.2,0.1,0.3,0.2,0.4l0.1,0.1H382.2z"/>
			<path class="st0" d="M397.3,84.2c-0.2-0.5-0.6-1.6-1.3-3.2c-0.7-1.6-1.2-2.9-1.5-3.6c-0.1-0.2-0.2-0.4-0.2-0.5l-0.2,0.5l-2.7,7
				c0,0-0.1,0.3-0.3,0.7c-0.2,0.4-0.3,0.8-0.5,1.2l-0.6,1.5l-0.1,0.2h-1l0.1-0.1c0.1-0.1,0.1-0.3,0.2-0.4c0.2-0.4,0.4-0.9,0.6-1.5
				l0.7-1.9c0.2-0.4,0.6-1.5,1.3-3.3c0.7-1.8,1.2-3,1.4-3.6c0.2-0.6,0.4-1,0.6-1.5c0-0.1,0.1-0.2,0.2-0.4l0.3-0.8l0.3,0.7
				c0,0,0,0.1,0,0.1c0.1,0.1,0.1,0.3,0.2,0.4c0.2,0.4,0.4,0.9,0.6,1.5c0.2,0.4,0.5,1.1,0.9,2.1c0.4,1,0.8,1.9,1.2,2.8
				c0.3,0.9,0.7,1.6,0.9,2.2c0,0,0.2,0.6,0.7,1.6c0.2,0.6,0.4,1,0.6,1.5l0.2,0.4l0.1,0.1h-1c-0.2-0.5-0.4-1.1-0.7-1.6
				c-0.2-0.5-0.4-0.9-0.5-1.3C397.5,84.5,397.4,84.3,397.3,84.2L397.3,84.2z"/>
			<path class="st0" d="M415.4,75L415.4,75v0.4v1v3c0,0.6,0,1.1,0,1.6c0,0.5,0,1,0,1.4v1v0.3v1.9v0.5l-1.4-1.6
				c-0.1-0.1-0.2-0.2-0.3-0.3l-0.9-1c-0.9-0.9-1.8-2-2.8-3.1c-1-1.1-1.9-2.2-2.8-3.1c-0.4-0.4-0.7-0.7-0.9-1
				c-0.1-0.1-0.2-0.2-0.3-0.3l-0.1-0.2v-1.3l0.8,0.9c0.1,0.1,0.2,0.2,0.3,0.3c0.3,0.3,0.6,0.6,0.9,1c0.8,0.9,1.8,2,2.8,3.1
				c1,1.1,1.9,2.2,2.8,3.1c0.4,0.4,0.7,0.7,0.9,1l0,0v-0.2v-1c0-0.4,0-0.9,0-1.4c0-0.5,0-1,0-1.6v-3v-1v-0.3V75H415.4z M406,77.4
				l0.8,0.9c0.1,0.1,0.2,0.2,0.3,0.3c0.3,0.3,0.6,0.6,0.9,1c0.8,0.9,1.8,2,2.8,3.1c1,1.1,1.9,2.2,2.8,3.1c0.4,0.4,0.7,0.7,0.9,1
				c0.1,0.1,0.2,0.2,0.3,0.3l0.7,0.8h-1.3l-0.1-0.2c-0.1-0.1-0.2-0.2-0.3-0.3c-0.3-0.3-0.6-0.6-0.9-1c-0.8-0.9-1.8-2-2.8-3.1
				c-1-1.1-2-2.2-2.8-3.1l-0.4-0.4v0.4v3.1v3.1v1v0.3v0.1H406v-0.1v-0.3v-1v-3.1v-3.1v-1v-0.3v-0.1V77.4z"/>
			<path class="st0" d="M423.8,75c2.2,0,4.1,0.6,5.4,2c1.2,1.2,1.8,2.7,1.9,4.4c0,1.9-0.5,3.4-1.6,4.5c-0.7,0.7-1.6,1.2-2.8,1.5
				c-0.8,0.2-1.6,0.3-2.4,0.4h-0.9v-0.1v-0.4v-1.5c0-1.3,0-2.8,0-4.4V77c0-0.6,0-1,0-1.4v-0.4V75H423.8L423.8,75z M424.3,86.9
				c0.8,0,1.5-0.2,2.1-0.4c1.1-0.3,1.9-0.7,2.4-1.3c0.9-0.9,1.4-2.2,1.4-3.8c0-1.5-0.6-2.8-1.6-3.8c-1.1-1.1-2.5-1.6-4.3-1.7
				c0,0.1,0,0.2,0,0.4c0,0.2,0,0.4,0,0.7v4.4c0,1.6,0,3.1,0,4.4V86.9z"/>
		</g>
		<g>
			<path class="st0" d="M129.5,38c4-2.7,16.3-7.6,15.7-13.4c-0.2-2.2-1.6-4-6.5-3.5c-6.2,0.5-10.5,5.5-12.7,2.4
				c-2.4-3.3,2.2-9.8,14.2-11.5c12-1.8,21.6,2.7,21.6,16.3c0,13.4,0.1,23.1,0.1,26.3c0,3.3,2.3,5.1,6.9,0.4l0.9,0.6
				c0,0-5.4,6.1-11,6.1c-5.6,0-4.9-5.7-4.9-10.6c-3.4,3-10.9,10.5-21.5,10.5c-5.4,0-10.4-2.1-11.3-7.6
				C119.6,46.3,124.4,41.5,129.5,38z M129.9,52.2c1.9,4.9,9.2,5.8,13.9,3.6c3.3-1.4,7.7-4.2,9.9-6.3V28.1c0-11.3-5.3-14.9-10.6-14.9
				c-4.6,0.1-8.4,2.3-10,4.9c-0.6,1,0.6,1.2,1.8,1.1c5.7-0.6,11,0.5,11.5,4.9c0.4,3.3-1.2,7.3-8.2,12.6
				C131.2,42.1,128,47.2,129.9,52.2z"/>
			<path class="st0" d="M189.8,11.5c7.2,0,17,4.7,17,13c0,3.1-2.1,6.3-10.2,6.3l-3.5-0.1c-13,0-15.8,9.8-16.2,16.2
				c0,0,4.7,9.8,13.9,10.8c10.1,1.1,17.1-5.9,21.2-14.2l1,0.4c-3.9,9.3-11.8,17.6-23.6,17.6c-12.9,0-23-13.4-23-25.4
				C166.4,23.2,176.4,11.5,189.8,11.5z M174.6,33.5c0,4.1,0.6,7.6,1.7,11.2c0.8-6.9,4.8-15.6,18.2-15.6c2.1,0,5.1,0,5.1-2.5
				c0-6.7-4.4-13.8-11.8-13.8C177.1,12.7,174.6,25.3,174.6,33.5z"/>
			<path class="st0" d="M209.9,60c2.2-0.3,5.7-0.4,5.7-2.7V27.4c0-4.6-0.5-12-1.8-14.9h8.9c0.8,1.5,1,4.9,1,8.4l-0.1,5.8V30
				c2.2-9.7,8-15.6,12.7-17.1c1.1-0.4,2.2-0.5,3.3-0.5h0.6c4.1,0.1,7.4,2.9,7.4,5.7c0,1.5-1,3.8-2.3,3.8c-1.1,0-2.5-3.1-9-3.1
				c-5.4,0-12.7,4.1-12.7,21.3v17.3c0,2.3,3.9,2.5,5.7,2.7v0.9h-19.4V60z"/>
			<path class="st0" d="M246.3,37.6c0-13.9,11.2-26,25.3-26c13.5,0,23.9,10.2,23.9,23.6c0,14.1-11,26.3-25.5,26.3
				C256.9,61.5,246.3,51,246.3,37.6z M272.1,60.2c11.8,0,14.9-13.6,15-22.7c0.3-10.5-4.7-24.8-17.4-24.8c-11.8,0-15,14.8-15,22.6
				C254.7,45.7,259.5,60.2,272.1,60.2z"/>
			<path class="st0" d="M294.9,12.6h13.7v24.3c1.8-9.5,11.2-25,20.2-25c12.4,0,12,10.7,12,23.6v21.8c0,2.2,3.9,2.5,5.7,2.7v0.9
				h-19.4V60c2.2-0.2,5.7-0.5,5.7-2.7V35.4c0-11.2-0.9-18.9-6.7-18.9c-9,0-17.2,18.8-17.6,25.7v15.1c0,2.2,3.9,2.5,5.7,2.7v0.9
				h-19.4V60c2.2-0.2,5.7-0.5,5.7-2.7V16.1c0-2.2-3.5-2.4-5.7-2.6V12.6z"/>
			<path class="st0" d="M345.7,37.6c0-13.9,11.2-26,25.3-26c13.5,0,23.9,10.2,23.9,23.6c0,14.1-11,26.3-25.5,26.3
				C356.4,61.5,345.7,51,345.7,37.6z M371.6,60.2c11.8,0,14.9-13.6,15-22.7c0.3-10.5-4.7-24.8-17.4-24.8c-11.8,0-15,14.8-15,22.6
				C354.2,45.7,359,60.2,371.6,60.2z"/>
			<path class="st0" d="M392.2,12.6H413v0.9c-1.4,0.2-6.3,0.2-5.4,2.9l12.2,34.4c0.8,2.2,1.3,3.3,3,3.3c1.8,0,2.5-0.9,3.3-3.3
				l11.5-33.8c1-2.6-4-3.2-5.4-3.3v-0.9h13.4v0.9c-2.3,0.3-5.9,0.8-6.8,3.3l-11.5,33.8c-2.9,8.4-4.5,10.5-8.1,10.5
				c-3.6,0-5.5-1.8-8.6-10.5l-12.4-34.4c-0.7-2-3.9-2.5-6.2-2.9V12.6z"/>
			<path class="st0" d="M449.5,38c4-2.7,16.3-7.6,15.7-13.4c-0.2-2.2-1.6-4-6.5-3.5c-6.2,0.5-10.5,5.5-12.7,2.4
				c-2.4-3.3,2.2-9.8,14.2-11.5c12-1.8,21.6,2.7,21.6,16.3c0,13.4,0.1,23.1,0.1,26.3c0,3.3,2.3,5.1,6.9,0.4l0.9,0.6
				c0,0-5.4,6.1-11,6.1c-5.6,0-4.9-5.7-4.9-10.6c-3.4,3-10.9,10.5-21.5,10.5c-5.4,0-10.4-2.1-11.3-7.6
				C439.7,46.3,444.4,41.5,449.5,38z M449.9,52.2c1.9,4.9,9.2,5.8,13.9,3.6c3.3-1.4,7.7-4.2,9.9-6.3V28.1c0-11.3-5.3-14.9-10.6-14.9
				c-4.6,0.1-8.4,2.3-10,4.9c-0.6,1,0.6,1.2,1.8,1.1c5.7-0.6,11,0.5,11.5,4.9c0.4,3.3-1.2,7.3-8.2,12.6
				C451.3,42.1,448,47.2,449.9,52.2z"/>
		</g>
	</g>
</g>
</svg>
