<?xml version="1.0" encoding="utf-8"?>
<!-- Generator: Adobe Illustrator 26.0.1, SVG Export Plug-In . SVG Version: 6.00 Build 0)  -->
<svg version="1.1" id="Layer_1" xmlns="http://www.w3.org/2000/svg" xmlns:xlink="http://www.w3.org/1999/xlink" x="0px" y="0px"
	 viewBox="0 0 85 27" style="enable-background:new 0 0 85 27;" xml:space="preserve">
<style type="text/css">
	.st0{fill:#FFFFFF;}
</style>
<g>
	<g>
		<path class="st0" d="M2.4,13.8c0.8-0.6,3.4-1.6,3.3-2.8c0-0.5-0.3-0.8-1.4-0.7c-1.3,0.1-2.2,1.2-2.7,0.5c-0.5-0.7,0.5-2.1,3-2.4
			C7.1,8,9.1,8.9,9.1,11.8c0,2.8,0,4.9,0,5.5c0,0.7,0.5,1.1,1.4,0.1l0.2,0.1c0,0-1.1,1.3-2.3,1.3s-1-1.2-1-2.2
			c-0.7,0.6-2.3,2.2-4.5,2.2c-1.1,0-2.2-0.4-2.4-1.6C0.3,15.6,1.3,14.5,2.4,13.8z M2.4,16.8c0.4,1,1.9,1.2,2.9,0.8
			C6,17.3,7,16.7,7.4,16.2v-4.5c0-2.4-1.1-3.1-2.2-3.1c-1,0-1.8,0.5-2.1,1C3,9.9,3.2,9.9,3.5,9.9c1.2-0.1,2.3,0.1,2.4,1
			c0.1,0.7-0.3,1.5-1.7,2.6C2.7,14.7,2,15.7,2.4,16.8z"/>
		<path class="st0" d="M16,8.2c1.5,0,3.6,1,3.6,2.7c0,0.6-0.4,1.3-2.1,1.3l-0.7,0c-2.7,0-3.3,2-3.4,3.4c0,0,1,2.1,2.9,2.3
			c2.1,0.2,3.6-1.2,4.4-3l0.2,0.1c-0.8,2-2.5,3.7-5,3.7c-2.7,0-4.8-2.8-4.8-5.3C11,10.7,13.1,8.2,16,8.2z M12.7,12.9
			c0,0.9,0.1,1.6,0.4,2.3c0.2-1.5,1-3.3,3.8-3.3c0.4,0,1.1,0,1.1-0.5c0-1.4-0.9-2.9-2.5-2.9C13.3,8.5,12.7,11.1,12.7,12.9z"/>
		<path class="st0" d="M21.1,18.4c0.5-0.1,1.2-0.1,1.2-0.6v-6.3c0-1-0.1-2.5-0.4-3.1h1.9c0.2,0.3,0.2,1,0.2,1.8l0,1.2v0.7
			c0.5-2,1.7-3.3,2.7-3.6c0.2-0.1,0.5-0.1,0.7-0.1h0.1C28.3,8.4,29,9,29,9.6c0,0.3-0.2,0.8-0.5,0.8c-0.2,0-0.5-0.6-1.9-0.6
			c-1.1,0-2.7,0.9-2.7,4.5v3.6c0,0.5,0.8,0.5,1.2,0.6v0.2h-4.1V18.4z"/>
		<path class="st0" d="M29.7,13.7c0-2.9,2.3-5.5,5.3-5.5c2.8,0,5,2.1,5,5c0,3-2.3,5.5-5.4,5.5C31.9,18.7,29.7,16.5,29.7,13.7z
			 M35.1,18.5c2.5,0,3.1-2.9,3.2-4.8c0.1-2.2-1-5.2-3.7-5.2c-2.5,0-3.2,3.1-3.2,4.7C31.4,15.4,32.4,18.5,35.1,18.5z"/>
		<path class="st0" d="M40.8,8.5h2.9v5.1c0.4-2,2.4-5.2,4.2-5.2c2.6,0,2.5,2.3,2.5,4.9v4.6c0,0.5,0.8,0.5,1.2,0.6v0.2h-4.1v-0.2
			c0.5,0,1.2-0.1,1.2-0.6v-4.6c0-2.4-0.2-4-1.4-4c-1.9,0-3.6,4-3.7,5.4v3.2c0,0.5,0.8,0.5,1.2,0.6v0.2h-4.1v-0.2
			c0.5,0,1.2-0.1,1.2-0.6V9.2c0-0.5-0.7-0.5-1.2-0.6V8.5z"/>
		<path class="st0" d="M52.4,13.7c0-2.9,2.3-5.5,5.3-5.5c2.8,0,5,2.1,5,5c0,3-2.3,5.5-5.4,5.5C54.6,18.7,52.4,16.5,52.4,13.7z
			 M57.8,18.5c2.5,0,3.1-2.9,3.2-4.8c0.1-2.2-1-5.2-3.7-5.2c-2.5,0-3.2,3.1-3.2,4.7C54.2,15.4,55.2,18.5,57.8,18.5z"/>
		<path class="st0" d="M63.1,8.5h4.4v0.2c-0.3,0-1.3,0-1.1,0.6l2.6,7.2c0.2,0.5,0.3,0.7,0.6,0.7c0.4,0,0.5-0.2,0.7-0.7l2.4-7.1
			c0.2-0.6-0.8-0.7-1.1-0.7V8.5h2.8v0.2c-0.5,0.1-1.2,0.2-1.4,0.7l-2.4,7.1c-0.6,1.8-0.9,2.2-1.7,2.2c-0.8,0-1.2-0.4-1.8-2.2
			l-2.6-7.2c-0.1-0.4-0.8-0.5-1.3-0.6V8.5z"/>
		<path class="st0" d="M76.1,13.8c0.8-0.6,3.4-1.6,3.3-2.8c0-0.5-0.3-0.8-1.4-0.7c-1.3,0.1-2.2,1.2-2.7,0.5c-0.5-0.7,0.5-2.1,3-2.4
			c2.5-0.4,4.5,0.6,4.5,3.4c0,2.8,0,4.9,0,5.5c0,0.7,0.5,1.1,1.4,0.1l0.2,0.1c0,0-1.1,1.3-2.3,1.3s-1-1.2-1-2.2
			c-0.7,0.6-2.3,2.2-4.5,2.2c-1.1,0-2.2-0.4-2.4-1.6C74,15.6,75,14.5,76.1,13.8z M76.2,16.8c0.4,1,1.9,1.2,2.9,0.8
			c0.7-0.3,1.6-0.9,2.1-1.3v-4.5c0-2.4-1.1-3.1-2.2-3.1c-1,0-1.8,0.5-2.1,1c-0.1,0.2,0.1,0.3,0.4,0.2c1.2-0.1,2.3,0.1,2.4,1
			c0.1,0.7-0.3,1.5-1.7,2.6S75.7,15.7,76.2,16.8z"/>
	</g>
</g>
</svg>
