<?xml version="1.0" encoding="utf-8"?>
<!-- Generator: Adobe Illustrator 26.0.1, SVG Export Plug-In . SVG Version: 6.00 Build 0)  -->
<svg version="1.1" id="Layer_1" xmlns="http://www.w3.org/2000/svg" xmlns:xlink="http://www.w3.org/1999/xlink" x="0px" y="0px"
	 viewBox="0 0 500 62.5" style="enable-background:new 0 0 500 62.5;" xml:space="preserve">
<style type="text/css">
	.st0{fill:#FFFFFF;}
</style>
<g>
	<g>
		<path class="st0" d="M11,33.1c5.1-3.4,20.4-9.6,19.7-16.7c-0.2-2.7-2-4.9-8.1-4.4c-7.8,0.7-13.1,6.9-15.9,3
			c-3-4.1,2.7-12.3,17.8-14.4c15.1-2.2,27,3.4,27,20.3c0,16.8,0.1,28.9,0.1,32.9c0,4.1,2.9,6.4,8.6,0.4l1.1,0.8
			c0,0-6.7,7.6-13.7,7.6s-6.2-7.1-6.2-13.3C37.1,53,27.7,62.4,14.4,62.3c-6.8,0-13-2.6-14.2-9.5C-1.3,43.5,4.6,37.5,11,33.1z
			 M11.6,50.9c2.4,6.2,11.5,7.3,17.4,4.5c4.1-1.8,9.7-5.3,12.4-7.9V20.8c0-14.2-6.6-18.7-13.3-18.6c-5.7,0.1-10.6,2.9-12.5,6.2
			c-0.8,1.2,0.8,1.5,2.2,1.4c7.1-0.8,13.7,0.7,14.4,6.2c0.5,4.2-1.5,9.1-10.2,15.7C13.2,38.2,9.1,44.6,11.6,50.9z"/>
		<path class="st0" d="M92,0c9,0,21.3,5.8,21.3,16.3c0,3.8-2.6,7.9-12.7,7.9l-4.4-0.1c-16.3,0-19.8,12.2-20.2,20.2
			c0,0,5.9,12.3,17.4,13.5c12.6,1.3,21.4-7.4,26.5-17.8l1.2,0.4c-4.8,11.7-14.7,22-29.6,22c-16.2,0-28.8-16.7-28.8-31.8
			C62.7,14.6,75.2,0,92,0z M72.9,27.5c0,5.2,0.8,9.5,2.1,14c1-8.7,6-19.6,22.8-19.6c2.6,0,6.4,0,6.4-3.2c0-8.4-5.5-17.3-14.7-17.3
			C76.1,1.4,72.9,17.3,72.9,27.5z"/>
		<path class="st0" d="M122.6,60.7c2.7-0.3,7.1-0.5,7.1-3.4V19.9c0-5.7-0.7-14.9-2.2-18.6h11.1c1,1.9,1.2,6.2,1.2,10.6l-0.1,7.3v4
			c2.7-12.1,10-19.5,15.9-21.4c1.4-0.4,2.7-0.7,4.1-0.7h0.8c5.2,0.1,9.2,3.6,9.2,7.1c0,1.9-1.2,4.7-2.9,4.7c-1.4,0-3.1-3.8-11.2-3.8
			c-6.7,0-15.9,5.2-15.9,26.6v21.7c0,2.9,4.8,3.1,7.1,3.4v1.1h-24.3V60.7z"/>
		<path class="st0" d="M173.6,32.5c0-17.4,14-32.5,31.7-32.5c16.9,0,29.9,12.7,29.9,29.6c0,17.7-13.7,32.9-31.9,32.9
			C186.9,62.4,173.6,49.3,173.6,32.5z M205.9,60.9c14.7,0,18.6-17,18.8-28.4c0.3-13.1-5.9-31-21.8-31c-14.7,0-18.8,18.5-18.8,28.2
			C184.1,42.8,190.2,60.9,205.9,60.9z"/>
		<path class="st0" d="M239.8,1.3H257v30.4c2.3-11.9,14.1-31.2,25.3-31.2c15.5,0,15.1,13.4,15.1,29.5v27.3c0,2.7,4.8,3.2,7.1,3.4
			v1.1h-24.3v-1.1c2.7-0.2,7.1-0.7,7.1-3.4V29.9c0-14.1-1.1-23.6-8.4-23.6c-11.2,0-21.5,23.5-22,32.1v18.9c0,2.7,4.8,3.2,7.1,3.4
			v1.1h-24.3v-1.1c2.7-0.2,7.1-0.7,7.1-3.4V5.7c0-2.7-4.4-3-7.1-3.3V1.3z"/>
		<path class="st0" d="M309,32.5c0-17.4,14-32.5,31.7-32.5c16.9,0,29.9,12.7,29.9,29.6c0,17.7-13.7,32.9-31.9,32.9
			C322.3,62.4,309,49.3,309,32.5z M341.3,60.9c14.7,0,18.6-17,18.8-28.4c0.3-13.1-5.9-31-21.8-31c-14.7,0-18.8,18.5-18.8,28.2
			C319.5,42.8,325.6,60.9,341.3,60.9z"/>
		<path class="st0" d="M372.6,1.3h25.9v1.1c-1.8,0.2-7.9,0.2-6.7,3.6l15.3,43c1,2.7,1.6,4.1,3.7,4.1c2.2,0,3.2-1.1,4.2-4.2
			l14.4-42.3c1.2-3.3-4.9-4-6.7-4.2V1.3h16.8v1.1c-2.9,0.3-7.4,1-8.5,4.2l-14.4,42.3c-3.6,10.6-5.6,13.2-10.1,13.2
			c-4.5,0-6.9-2.3-10.8-13.1L380.3,6c-0.9-2.5-4.8-3.2-7.7-3.6V1.3z"/>
		<path class="st0" d="M449.8,33.1c5.1-3.4,20.4-9.6,19.7-16.7c-0.2-2.7-2-4.9-8.1-4.4c-7.8,0.7-13.1,6.9-15.9,3
			c-3-4.1,2.7-12.3,17.8-14.4c15.1-2.2,27,3.4,27,20.3c0,16.8,0.1,28.9,0.1,32.9c0,4.1,2.9,6.4,8.6,0.4L500,55c0,0-6.7,7.6-13.7,7.6
			c-7,0-6.2-7.1-6.2-13.3c-4.3,3.7-13.6,13.2-26.9,13.1c-6.8,0-13-2.6-14.2-9.5C437.5,43.5,443.4,37.5,449.8,33.1z M450.3,50.9
			c2.4,6.2,11.5,7.3,17.4,4.5c4.1-1.8,9.7-5.3,12.4-7.9V20.8c0-14.2-6.6-18.7-13.3-18.6c-5.7,0.1-10.6,2.9-12.5,6.2
			c-0.8,1.2,0.8,1.5,2.2,1.4c7.1-0.8,13.7,0.7,14.4,6.2c0.5,4.2-1.5,9.1-10.2,15.7C452,38.2,447.9,44.6,450.3,50.9z"/>
	</g>
</g>
</svg>
